<?xml version="1.0" encoding="UTF-8" standalone="no"?>
<!DOCTYPE svg PUBLIC "-//W3C//DTD SVG 1.1//EN"
 "http://www.w3.org/Graphics/SVG/1.1/DTD/svg11.dtd">
<!-- Generated by graphviz version 8.0.2 (20230410.1723)
 -->
<!-- Title: tests Pages: 1 -->
<svg width="542pt" height="260pt"
 viewBox="0.00 0.00 542.00 260.00" xmlns="http://www.w3.org/2000/svg" xmlns:xlink="http://www.w3.org/1999/xlink">
<g id="graph0" class="graph" transform="scale(1 1) rotate(0) translate(4 256)">
<title>tests</title>
<polygon fill="white" stroke="none" points="-4,4 -4,-256 538,-256 538,4 -4,4"/>
<!-- test1_armoire -->
<g id="node1" class="node">
<title>test1_armoire</title>
<polygon fill="none" stroke="black" points="64,-252 10,-252 10,-216 64,-216 64,-252"/>
<text text-anchor="middle" x="37" y="-230.3" font-family="Times,serif" font-size="14.00">Test 1</text>
</g>
<!-- test1_creerdocument_armoire -->
<g id="node7" class="node">
<title>test1_creerdocument_armoire</title>
<polygon fill="none" stroke="black" points="74,-180 0,-180 0,-144 74,-144 74,-180"/>
<text text-anchor="middle" x="37" y="-158.3" font-family="Times,serif" font-size="14.00">Document</text>
</g>
<!-- test1_armoire&#45;&gt;test1_creerdocument_armoire -->
<g id="edge1" class="edge">
<title>test1_armoire&#45;&gt;test1_creerdocument_armoire</title>
<path fill="none" stroke="black" d="M37,-215.7C37,-208.24 37,-199.32 37,-190.97"/>
<polygon fill="black" stroke="black" points="40.5,-191.1 37,-181.1 33.5,-191.1 40.5,-191.1"/>
</g>
<!-- test2_armoire -->
<g id="node2" class="node">
<title>test2_armoire</title>
<polygon fill="none" stroke="black" points="156,-252 102,-252 102,-216 156,-216 156,-252"/>
<text text-anchor="middle" x="129" y="-230.3" font-family="Times,serif" font-size="14.00">Test 2</text>
</g>
<!-- test2_creerdocument_armoire -->
<g id="node8" class="node">
<title>test2_creerdocument_armoire</title>
<polygon fill="none" stroke="black" points="166,-180 92,-180 92,-144 166,-144 166,-180"/>
<text text-anchor="middle" x="129" y="-158.3" font-family="Times,serif" font-size="14.00">Document</text>
</g>
<!-- test2_armoire&#45;&gt;test2_creerdocument_armoire -->
<g id="edge2" class="edge">
<title>test2_armoire&#45;&gt;test2_creerdocument_armoire</title>
<path fill="none" stroke="black" d="M129,-215.7C129,-208.24 129,-199.32 129,-190.97"/>
<polygon fill="black" stroke="black" points="132.5,-191.1 129,-181.1 125.5,-191.1 132.5,-191.1"/>
</g>
<!-- test3_armoire -->
<g id="node3" class="node">
<title>test3_armoire</title>
<polygon fill="none" stroke="black" points="248,-252 194,-252 194,-216 248,-216 248,-252"/>
<text text-anchor="middle" x="221" y="-230.3" font-family="Times,serif" font-size="14.00">Test 3</text>
</g>
<!-- test3_creerdocument_armoire -->
<g id="node9" class="node">
<title>test3_creerdocument_armoire</title>
<polygon fill="none" stroke="black" points="258,-180 184,-180 184,-144 258,-144 258,-180"/>
<text text-anchor="middle" x="221" y="-158.3" font-family="Times,serif" font-size="14.00">Document</text>
</g>
<!-- test3_armoire&#45;&gt;test3_creerdocument_armoire -->
<g id="edge3" class="edge">
<title>test3_armoire&#45;&gt;test3_creerdocument_armoire</title>
<path fill="none" stroke="black" d="M221,-215.7C221,-208.24 221,-199.32 221,-190.97"/>
<polygon fill="black" stroke="black" points="224.5,-191.1 221,-181.1 217.5,-191.1 224.5,-191.1"/>
</g>
<!-- test1_bannette -->
<g id="node4" class="node">
<title>test1_bannette</title>
<polygon fill="none" stroke="black" points="340,-252 286,-252 286,-216 340,-216 340,-252"/>
<text text-anchor="middle" x="313" y="-230.3" font-family="Times,serif" font-size="14.00">Test 1</text>
</g>
<!-- test1_creerdocument_bannette -->
<g id="node10" class="node">
<title>test1_creerdocument_bannette</title>
<polygon fill="none" stroke="black" points="350,-180 276,-180 276,-144 350,-144 350,-180"/>
<text text-anchor="middle" x="313" y="-158.3" font-family="Times,serif" font-size="14.00">Document</text>
</g>
<!-- test1_bannette&#45;&gt;test1_creerdocument_bannette -->
<g id="edge4" class="edge">
<title>test1_bannette&#45;&gt;test1_creerdocument_bannette</title>
<path fill="none" stroke="black" d="M313,-215.7C313,-208.24 313,-199.32 313,-190.97"/>
<polygon fill="black" stroke="black" points="316.5,-191.1 313,-181.1 309.5,-191.1 316.5,-191.1"/>
</g>
<!-- test2_bannette -->
<g id="node5" class="node">
<title>test2_bannette</title>
<polygon fill="none" stroke="black" points="432,-252 378,-252 378,-216 432,-216 432,-252"/>
<text text-anchor="middle" x="405" y="-230.3" font-family="Times,serif" font-size="14.00">Test 2</text>
</g>
<!-- test2_creerdocument_bannette -->
<g id="node11" class="node">
<title>test2_creerdocument_bannette</title>
<polygon fill="none" stroke="black" points="442,-180 368,-180 368,-144 442,-144 442,-180"/>
<text text-anchor="middle" x="405" y="-158.3" font-family="Times,serif" font-size="14.00">Document</text>
</g>
<!-- test2_bannette&#45;&gt;test2_creerdocument_bannette -->
<g id="edge5" class="edge">
<title>test2_bannette&#45;&gt;test2_creerdocument_bannette</title>
<path fill="none" stroke="black" d="M405,-215.7C405,-208.24 405,-199.32 405,-190.97"/>
<polygon fill="black" stroke="black" points="408.5,-191.1 405,-181.1 401.5,-191.1 408.5,-191.1"/>
</g>
<!-- test3_bannette -->
<g id="node6" class="node">
<title>test3_bannette</title>
<polygon fill="none" stroke="black" points="524,-252 470,-252 470,-216 524,-216 524,-252"/>
<text text-anchor="middle" x="497" y="-230.3" font-family="Times,serif" font-size="14.00">Test 3</text>
</g>
<!-- test3_creerdocument_bannette -->
<g id="node12" class="node">
<title>test3_creerdocument_bannette</title>
<polygon fill="none" stroke="black" points="534,-180 460,-180 460,-144 534,-144 534,-180"/>
<text text-anchor="middle" x="497" y="-158.3" font-family="Times,serif" font-size="14.00">Document</text>
</g>
<!-- test3_bannette&#45;&gt;test3_creerdocument_bannette -->
<g id="edge6" class="edge">
<title>test3_bannette&#45;&gt;test3_creerdocument_bannette</title>
<path fill="none" stroke="black" d="M497,-215.7C497,-208.24 497,-199.32 497,-190.97"/>
<polygon fill="black" stroke="black" points="500.5,-191.1 497,-181.1 493.5,-191.1 500.5,-191.1"/>
</g>
<!-- test1_creergabarit_armoire -->
<g id="node13" class="node">
<title>test1_creergabarit_armoire</title>
<polygon fill="none" stroke="black" points="65.5,-108 8.5,-108 8.5,-72 65.5,-72 65.5,-108"/>
<text text-anchor="middle" x="37" y="-86.3" font-family="Times,serif" font-size="14.00">Gabarit</text>
</g>
<!-- test1_creerdocument_armoire&#45;&gt;test1_creergabarit_armoire -->
<g id="edge7" class="edge">
<title>test1_creerdocument_armoire&#45;&gt;test1_creergabarit_armoire</title>
<path fill="none" stroke="black" d="M37,-143.7C37,-136.24 37,-127.32 37,-118.97"/>
<polygon fill="black" stroke="black" points="40.5,-119.1 37,-109.1 33.5,-119.1 40.5,-119.1"/>
</g>
<!-- test2_creergabarit_armoire -->
<g id="node14" class="node">
<title>test2_creergabarit_armoire</title>
<polygon fill="none" stroke="black" points="157.5,-108 100.5,-108 100.5,-72 157.5,-72 157.5,-108"/>
<text text-anchor="middle" x="129" y="-86.3" font-family="Times,serif" font-size="14.00">Gabarit</text>
</g>
<!-- test2_creerdocument_armoire&#45;&gt;test2_creergabarit_armoire -->
<g id="edge8" class="edge">
<title>test2_creerdocument_armoire&#45;&gt;test2_creergabarit_armoire</title>
<path fill="none" stroke="black" d="M129,-143.7C129,-136.24 129,-127.32 129,-118.97"/>
<polygon fill="black" stroke="black" points="132.5,-119.1 129,-109.1 125.5,-119.1 132.5,-119.1"/>
</g>
<!-- test3_creergabarit_armoire -->
<g id="node15" class="node">
<title>test3_creergabarit_armoire</title>
<polygon fill="none" stroke="black" points="249.5,-108 192.5,-108 192.5,-72 249.5,-72 249.5,-108"/>
<text text-anchor="middle" x="221" y="-86.3" font-family="Times,serif" font-size="14.00">Gabarit</text>
</g>
<!-- test3_creerdocument_armoire&#45;&gt;test3_creergabarit_armoire -->
<g id="edge9" class="edge">
<title>test3_creerdocument_armoire&#45;&gt;test3_creergabarit_armoire</title>
<path fill="none" stroke="black" d="M221,-143.7C221,-136.24 221,-127.32 221,-118.97"/>
<polygon fill="black" stroke="black" points="224.5,-119.1 221,-109.1 217.5,-119.1 224.5,-119.1"/>
</g>
<!-- test1_creerbannette -->
<g id="node16" class="node">
<title>test1_creerbannette</title>
<polygon fill="none" stroke="black" points="345.5,-108 280.5,-108 280.5,-72 345.5,-72 345.5,-108"/>
<text text-anchor="middle" x="313" y="-86.3" font-family="Times,serif" font-size="14.00">Bannette</text>
</g>
<!-- test1_creerdocument_bannette&#45;&gt;test1_creerbannette -->
<g id="edge10" class="edge">
<title>test1_creerdocument_bannette&#45;&gt;test1_creerbannette</title>
<path fill="none" stroke="black" d="M313,-143.7C313,-136.24 313,-127.32 313,-118.97"/>
<polygon fill="black" stroke="black" points="316.5,-119.1 313,-109.1 309.5,-119.1 316.5,-119.1"/>
</g>
<!-- test2_creerbannette -->
<g id="node17" class="node">
<title>test2_creerbannette</title>
<polygon fill="none" stroke="black" points="437.5,-108 372.5,-108 372.5,-72 437.5,-72 437.5,-108"/>
<text text-anchor="middle" x="405" y="-86.3" font-family="Times,serif" font-size="14.00">Bannette</text>
</g>
<!-- test2_creerdocument_bannette&#45;&gt;test2_creerbannette -->
<g id="edge11" class="edge">
<title>test2_creerdocument_bannette&#45;&gt;test2_creerbannette</title>
<path fill="none" stroke="black" d="M405,-143.7C405,-136.24 405,-127.32 405,-118.97"/>
<polygon fill="black" stroke="black" points="408.5,-119.1 405,-109.1 401.5,-119.1 408.5,-119.1"/>
</g>
<!-- test3_creerbannette -->
<g id="node18" class="node">
<title>test3_creerbannette</title>
<polygon fill="none" stroke="black" points="529.5,-108 464.5,-108 464.5,-72 529.5,-72 529.5,-108"/>
<text text-anchor="middle" x="497" y="-86.3" font-family="Times,serif" font-size="14.00">Bannette</text>
</g>
<!-- test3_creerdocument_bannette&#45;&gt;test3_creerbannette -->
<g id="edge12" class="edge">
<title>test3_creerdocument_bannette&#45;&gt;test3_creerbannette</title>
<path fill="none" stroke="black" d="M497,-143.7C497,-136.24 497,-127.32 497,-118.97"/>
<polygon fill="black" stroke="black" points="500.5,-119.1 497,-109.1 493.5,-119.1 500.5,-119.1"/>
</g>
<!-- test1_creerarmoire -->
<g id="node19" class="node">
<title>test1_creerarmoire</title>
<polygon fill="none" stroke="black" points="68.5,-36 5.5,-36 5.5,0 68.5,0 68.5,-36"/>
<text text-anchor="middle" x="37" y="-14.3" font-family="Times,serif" font-size="14.00">Armoire</text>
</g>
<!-- test1_creergabarit_armoire&#45;&gt;test1_creerarmoire -->
<g id="edge13" class="edge">
<title>test1_creergabarit_armoire&#45;&gt;test1_creerarmoire</title>
<path fill="none" stroke="black" d="M37,-71.7C37,-64.24 37,-55.32 37,-46.97"/>
<polygon fill="black" stroke="black" points="40.5,-47.1 37,-37.1 33.5,-47.1 40.5,-47.1"/>
</g>
<!-- test2_creerarmoire -->
<g id="node20" class="node">
<title>test2_creerarmoire</title>
<polygon fill="none" stroke="black" points="160.5,-36 97.5,-36 97.5,0 160.5,0 160.5,-36"/>
<text text-anchor="middle" x="129" y="-14.3" font-family="Times,serif" font-size="14.00">Armoire</text>
</g>
<!-- test2_creergabarit_armoire&#45;&gt;test2_creerarmoire -->
<g id="edge14" class="edge">
<title>test2_creergabarit_armoire&#45;&gt;test2_creerarmoire</title>
<path fill="none" stroke="black" d="M129,-71.7C129,-64.24 129,-55.32 129,-46.97"/>
<polygon fill="black" stroke="black" points="132.5,-47.1 129,-37.1 125.5,-47.1 132.5,-47.1"/>
</g>
<!-- test3_creerarmoire -->
<g id="node21" class="node">
<title>test3_creerarmoire</title>
<polygon fill="none" stroke="black" points="252.5,-36 189.5,-36 189.5,0 252.5,0 252.5,-36"/>
<text text-anchor="middle" x="221" y="-14.3" font-family="Times,serif" font-size="14.00">Armoire</text>
</g>
<!-- test3_creergabarit_armoire&#45;&gt;test3_creerarmoire -->
<g id="edge15" class="edge">
<title>test3_creergabarit_armoire&#45;&gt;test3_creerarmoire</title>
<path fill="none" stroke="black" d="M221,-71.7C221,-64.24 221,-55.32 221,-46.97"/>
<polygon fill="black" stroke="black" points="224.5,-47.1 221,-37.1 217.5,-47.1 224.5,-47.1"/>
</g>
</g>
</svg>
