<?xml version="1.0" encoding="UTF-8" standalone="no"?>
<!DOCTYPE svg PUBLIC "-//W3C//DTD SVG 1.1//EN"
 "http://www.w3.org/Graphics/SVG/1.1/DTD/svg11.dtd">
<!-- Generated by graphviz version 8.0.2 (20230410.1723)
 -->
<!-- Title: tests Pages: 1 -->
<svg width="599pt" height="404pt"
 viewBox="0.00 0.00 598.50 404.00" xmlns="http://www.w3.org/2000/svg" xmlns:xlink="http://www.w3.org/1999/xlink">
<g id="graph0" class="graph" transform="scale(1 1) rotate(0) translate(4 400)">
<title>tests</title>
<polygon fill="white" stroke="none" points="-4,4 -4,-400 594.5,-400 594.5,4 -4,4"/>
<!-- test1 -->
<g id="node1" class="node">
<title>test1</title>
<polygon fill="none" stroke="black" points="239,-396 185,-396 185,-360 239,-360 239,-396"/>
<text text-anchor="middle" x="212" y="-374.3" font-family="Times,serif" font-size="14.00">Test 1</text>
</g>
<!-- document_any -->
<g id="node4" class="node">
<title>document_any</title>
<polygon fill="none" stroke="red" points="339,-324 229,-324 229,-288 339,-288 339,-324"/>
<text text-anchor="middle" x="284" y="-302.3" font-family="Times,serif" font-size="14.00">Document::any()</text>
</g>
<!-- test1&#45;&gt;document_any -->
<g id="edge1" class="edge">
<title>test1&#45;&gt;document_any</title>
<path fill="none" stroke="black" d="M229.8,-359.7C238.45,-351.28 249.01,-341.02 258.5,-331.79"/>
<polygon fill="black" stroke="black" points="260.43,-334.83 265.16,-325.35 255.55,-329.81 260.43,-334.83"/>
</g>
<!-- test2 -->
<g id="node2" class="node">
<title>test2</title>
<polygon fill="none" stroke="black" points="311,-396 257,-396 257,-360 311,-360 311,-396"/>
<text text-anchor="middle" x="284" y="-374.3" font-family="Times,serif" font-size="14.00">Test 2</text>
</g>
<!-- test2&#45;&gt;document_any -->
<g id="edge2" class="edge">
<title>test2&#45;&gt;document_any</title>
<path fill="none" stroke="black" d="M284,-359.7C284,-352.24 284,-343.32 284,-334.97"/>
<polygon fill="black" stroke="black" points="287.5,-335.1 284,-325.1 280.5,-335.1 287.5,-335.1"/>
</g>
<!-- test3 -->
<g id="node3" class="node">
<title>test3</title>
<polygon fill="none" stroke="black" points="383,-396 329,-396 329,-360 383,-360 383,-396"/>
<text text-anchor="middle" x="356" y="-374.3" font-family="Times,serif" font-size="14.00">Test 3</text>
</g>
<!-- test3&#45;&gt;document_any -->
<g id="edge3" class="edge">
<title>test3&#45;&gt;document_any</title>
<path fill="none" stroke="black" d="M338.2,-359.7C329.55,-351.28 318.99,-341.02 309.5,-331.79"/>
<polygon fill="black" stroke="black" points="312.45,-329.81 302.84,-325.35 307.57,-334.83 312.45,-329.81"/>
</g>
<!-- creer_document_armoire -->
<g id="node5" class="node">
<title>creer_document_armoire</title>
<polygon fill="none" stroke="red" points="178,-252 0,-252 0,-216 178,-216 178,-252"/>
<text text-anchor="middle" x="89" y="-230.3" font-family="Times,serif" font-size="14.00">CreerDocumentDansArmoire</text>
</g>
<!-- document_any&#45;&gt;creer_document_armoire -->
<g id="edge4" class="edge">
<title>document_any&#45;&gt;creer_document_armoire</title>
<path fill="none" stroke="red" d="M235.3,-287.52C208.67,-277.96 175.51,-266.05 147.49,-256"/>
<polygon fill="red" stroke="red" points="149.01,-252.47 138.42,-252.38 146.65,-259.05 149.01,-252.47"/>
</g>
<!-- creer_document_bannette -->
<g id="node6" class="node">
<title>creer_document_bannette</title>
<polygon fill="none" stroke="red" points="590.5,-252 411.5,-252 411.5,-216 590.5,-216 590.5,-252"/>
<text text-anchor="middle" x="501" y="-230.3" font-family="Times,serif" font-size="14.00">CreerDocumentDansBannette</text>
</g>
<!-- document_any&#45;&gt;creer_document_bannette -->
<g id="edge5" class="edge">
<title>document_any&#45;&gt;creer_document_bannette</title>
<path fill="none" stroke="red" d="M338.2,-287.52C368.09,-277.88 405.38,-265.84 436.73,-255.73"/>
<polygon fill="red" stroke="red" points="437.67,-258.78 446.12,-252.38 435.53,-252.12 437.67,-258.78"/>
</g>
<!-- creer_document_dossier -->
<g id="node7" class="node">
<title>creer_document_dossier</title>
<polygon fill="none" stroke="red" points="370.5,-252 197.5,-252 197.5,-216 370.5,-216 370.5,-252"/>
<text text-anchor="middle" x="284" y="-230.3" font-family="Times,serif" font-size="14.00">CreerDocumentDansDossier</text>
</g>
<!-- document_any&#45;&gt;creer_document_dossier -->
<g id="edge6" class="edge">
<title>document_any&#45;&gt;creer_document_dossier</title>
<path fill="none" stroke="red" d="M284,-287.7C284,-280.24 284,-271.32 284,-262.97"/>
<polygon fill="red" stroke="red" points="287.5,-263.1 284,-253.1 280.5,-263.1 287.5,-263.1"/>
</g>
<!-- creer_gabarit_document -->
<g id="node9" class="node">
<title>creer_gabarit_document</title>
<polygon fill="none" stroke="black" points="147,-180 3,-180 3,-144 147,-144 147,-180"/>
<text text-anchor="middle" x="75" y="-158.3" font-family="Times,serif" font-size="14.00">CreerGabaritDocument</text>
</g>
<!-- creer_document_armoire&#45;&gt;creer_gabarit_document -->
<g id="edge7" class="edge">
<title>creer_document_armoire&#45;&gt;creer_gabarit_document</title>
<path fill="none" stroke="black" d="M85.54,-215.7C84.03,-208.15 82.22,-199.12 80.54,-190.68"/>
<polygon fill="black" stroke="black" points="83.81,-190.22 78.42,-181.1 76.95,-191.6 83.81,-190.22"/>
</g>
<!-- creer_bannette -->
<g id="node13" class="node">
<title>creer_bannette</title>
<polygon fill="none" stroke="black" points="560.5,-36 465.5,-36 465.5,0 560.5,0 560.5,-36"/>
<text text-anchor="middle" x="513" y="-14.3" font-family="Times,serif" font-size="14.00">CreerBannette</text>
</g>
<!-- creer_document_bannette&#45;&gt;creer_bannette -->
<g id="edge9" class="edge">
<title>creer_document_bannette&#45;&gt;creer_bannette</title>
<path fill="none" stroke="black" d="M501.96,-215.85C504.03,-178.99 508.91,-91.92 511.43,-46.96"/>
<polygon fill="black" stroke="black" points="514.97,-47.41 512.03,-37.23 507.98,-47.02 514.97,-47.41"/>
</g>
<!-- creer_dossier -->
<g id="node8" class="node">
<title>creer_dossier</title>
<polygon fill="none" stroke="black" points="485,-180 397,-180 397,-144 485,-144 485,-180"/>
<text text-anchor="middle" x="441" y="-158.3" font-family="Times,serif" font-size="14.00">CreerDossier</text>
</g>
<!-- creer_document_dossier&#45;&gt;creer_dossier -->
<g id="edge11" class="edge">
<title>creer_document_dossier&#45;&gt;creer_dossier</title>
<path fill="none" stroke="black" d="M323.21,-215.52C344.08,-206.21 369.95,-194.68 392.12,-184.79"/>
<polygon fill="black" stroke="black" points="393.31,-187.65 401.02,-180.38 390.46,-181.26 393.31,-187.65"/>
</g>
<!-- creer_gabarit_document_dossier -->
<g id="node11" class="node">
<title>creer_gabarit_document_dossier</title>
<polygon fill="none" stroke="black" points="378.5,-180 165.5,-180 165.5,-144 378.5,-144 378.5,-180"/>
<text text-anchor="middle" x="272" y="-158.3" font-family="Times,serif" font-size="14.00">CreerGabaritDocumentDansDossier</text>
</g>
<!-- creer_document_dossier&#45;&gt;creer_gabarit_document_dossier -->
<g id="edge10" class="edge">
<title>creer_document_dossier&#45;&gt;creer_gabarit_document_dossier</title>
<path fill="none" stroke="black" d="M281.03,-215.7C279.74,-208.15 278.19,-199.12 276.75,-190.68"/>
<polygon fill="black" stroke="black" points="280.07,-190.37 274.93,-181.1 273.17,-191.55 280.07,-190.37"/>
</g>
<!-- creer_armoire -->
<g id="node12" class="node">
<title>creer_armoire</title>
<polygon fill="none" stroke="black" points="207.5,-36 114.5,-36 114.5,0 207.5,0 207.5,-36"/>
<text text-anchor="middle" x="161" y="-14.3" font-family="Times,serif" font-size="14.00">CreerArmoire</text>
</g>
<!-- creer_gabarit_document&#45;&gt;creer_armoire -->
<g id="edge8" class="edge">
<title>creer_gabarit_document&#45;&gt;creer_armoire</title>
<path fill="none" stroke="black" d="M85.55,-143.59C100.39,-119.08 127.57,-74.19 144.94,-45.52"/>
<polygon fill="black" stroke="black" points="148.45,-47.48 150.64,-37.11 142.46,-43.85 148.45,-47.48"/>
</g>
<!-- creer_gabarit_dossier -->
<g id="node10" class="node">
<title>creer_gabarit_dossier</title>
<polygon fill="none" stroke="black" points="284,-108 156,-108 156,-72 284,-72 284,-108"/>
<text text-anchor="middle" x="220" y="-86.3" font-family="Times,serif" font-size="14.00">CreerGabaritDossier</text>
</g>
<!-- creer_gabarit_dossier&#45;&gt;creer_armoire -->
<g id="edge13" class="edge">
<title>creer_gabarit_dossier&#45;&gt;creer_armoire</title>
<path fill="none" stroke="black" d="M205.42,-71.7C198.49,-63.47 190.06,-53.48 182.43,-44.42"/>
<polygon fill="black" stroke="black" points="184.54,-42.49 175.42,-37.1 179.19,-47.01 184.54,-42.49"/>
</g>
<!-- creer_gabarit_document_dossier&#45;&gt;creer_gabarit_dossier -->
<g id="edge12" class="edge">
<title>creer_gabarit_document_dossier&#45;&gt;creer_gabarit_dossier</title>
<path fill="none" stroke="black" d="M259.15,-143.7C253.1,-135.56 245.77,-125.69 239.09,-116.7"/>
<polygon fill="black" stroke="black" points="241.48,-115.04 232.71,-109.1 235.86,-119.22 241.48,-115.04"/>
</g>
</g>
</svg>
