<?xml version="1.0" encoding="UTF-8" standalone="no"?>
<!DOCTYPE svg PUBLIC "-//W3C//DTD SVG 1.1//EN"
 "http://www.w3.org/Graphics/SVG/1.1/DTD/svg11.dtd">
<!-- Generated by graphviz version 8.0.2 (20230410.1723)
 -->
<!-- Title: tests Pages: 1 -->
<svg width="928pt" height="404pt"
 viewBox="0.00 0.00 928.00 404.00" xmlns="http://www.w3.org/2000/svg" xmlns:xlink="http://www.w3.org/1999/xlink">
<g id="graph0" class="graph" transform="scale(1 1) rotate(0) translate(4 400)">
<title>tests</title>
<polygon fill="white" stroke="none" points="-4,4 -4,-400 924,-400 924,4 -4,4"/>
<!-- test1_armoire -->
<g id="node1" class="node">
<title>test1_armoire</title>
<polygon fill="none" stroke="black" points="64,-396 10,-396 10,-360 64,-360 64,-396"/>
<text text-anchor="middle" x="37" y="-374.3" font-family="Times,serif" font-size="14.00">Test 1</text>
</g>
<!-- test1_creerdocument_armoire -->
<g id="node10" class="node">
<title>test1_creerdocument_armoire</title>
<polygon fill="none" stroke="black" points="74,-324 0,-324 0,-288 74,-288 74,-324"/>
<text text-anchor="middle" x="37" y="-302.3" font-family="Times,serif" font-size="14.00">Document</text>
</g>
<!-- test1_armoire&#45;&gt;test1_creerdocument_armoire -->
<g id="edge1" class="edge">
<title>test1_armoire&#45;&gt;test1_creerdocument_armoire</title>
<path fill="none" stroke="black" d="M37,-359.7C37,-352.24 37,-343.32 37,-334.97"/>
<polygon fill="black" stroke="black" points="40.5,-335.1 37,-325.1 33.5,-335.1 40.5,-335.1"/>
</g>
<!-- test2_armoire -->
<g id="node2" class="node">
<title>test2_armoire</title>
<polygon fill="none" stroke="black" points="156,-396 102,-396 102,-360 156,-360 156,-396"/>
<text text-anchor="middle" x="129" y="-374.3" font-family="Times,serif" font-size="14.00">Test 2</text>
</g>
<!-- test2_creerdocument_armoire -->
<g id="node11" class="node">
<title>test2_creerdocument_armoire</title>
<polygon fill="none" stroke="black" points="166,-324 92,-324 92,-288 166,-288 166,-324"/>
<text text-anchor="middle" x="129" y="-302.3" font-family="Times,serif" font-size="14.00">Document</text>
</g>
<!-- test2_armoire&#45;&gt;test2_creerdocument_armoire -->
<g id="edge2" class="edge">
<title>test2_armoire&#45;&gt;test2_creerdocument_armoire</title>
<path fill="none" stroke="black" d="M129,-359.7C129,-352.24 129,-343.32 129,-334.97"/>
<polygon fill="black" stroke="black" points="132.5,-335.1 129,-325.1 125.5,-335.1 132.5,-335.1"/>
</g>
<!-- test3_armoire -->
<g id="node3" class="node">
<title>test3_armoire</title>
<polygon fill="none" stroke="black" points="248,-396 194,-396 194,-360 248,-360 248,-396"/>
<text text-anchor="middle" x="221" y="-374.3" font-family="Times,serif" font-size="14.00">Test 3</text>
</g>
<!-- test3_creerdocument_armoire -->
<g id="node12" class="node">
<title>test3_creerdocument_armoire</title>
<polygon fill="none" stroke="black" points="258,-324 184,-324 184,-288 258,-288 258,-324"/>
<text text-anchor="middle" x="221" y="-302.3" font-family="Times,serif" font-size="14.00">Document</text>
</g>
<!-- test3_armoire&#45;&gt;test3_creerdocument_armoire -->
<g id="edge3" class="edge">
<title>test3_armoire&#45;&gt;test3_creerdocument_armoire</title>
<path fill="none" stroke="black" d="M221,-359.7C221,-352.24 221,-343.32 221,-334.97"/>
<polygon fill="black" stroke="black" points="224.5,-335.1 221,-325.1 217.5,-335.1 224.5,-335.1"/>
</g>
<!-- test1_bannette -->
<g id="node4" class="node">
<title>test1_bannette</title>
<polygon fill="none" stroke="black" points="340,-396 286,-396 286,-360 340,-360 340,-396"/>
<text text-anchor="middle" x="313" y="-374.3" font-family="Times,serif" font-size="14.00">Test 1</text>
</g>
<!-- test1_creerdocument_bannette -->
<g id="node13" class="node">
<title>test1_creerdocument_bannette</title>
<polygon fill="none" stroke="black" points="350,-324 276,-324 276,-288 350,-288 350,-324"/>
<text text-anchor="middle" x="313" y="-302.3" font-family="Times,serif" font-size="14.00">Document</text>
</g>
<!-- test1_bannette&#45;&gt;test1_creerdocument_bannette -->
<g id="edge4" class="edge">
<title>test1_bannette&#45;&gt;test1_creerdocument_bannette</title>
<path fill="none" stroke="black" d="M313,-359.7C313,-352.24 313,-343.32 313,-334.97"/>
<polygon fill="black" stroke="black" points="316.5,-335.1 313,-325.1 309.5,-335.1 316.5,-335.1"/>
</g>
<!-- test2_bannette -->
<g id="node5" class="node">
<title>test2_bannette</title>
<polygon fill="none" stroke="black" points="432,-396 378,-396 378,-360 432,-360 432,-396"/>
<text text-anchor="middle" x="405" y="-374.3" font-family="Times,serif" font-size="14.00">Test 2</text>
</g>
<!-- test2_creerdocument_bannette -->
<g id="node14" class="node">
<title>test2_creerdocument_bannette</title>
<polygon fill="none" stroke="black" points="442,-324 368,-324 368,-288 442,-288 442,-324"/>
<text text-anchor="middle" x="405" y="-302.3" font-family="Times,serif" font-size="14.00">Document</text>
</g>
<!-- test2_bannette&#45;&gt;test2_creerdocument_bannette -->
<g id="edge5" class="edge">
<title>test2_bannette&#45;&gt;test2_creerdocument_bannette</title>
<path fill="none" stroke="black" d="M405,-359.7C405,-352.24 405,-343.32 405,-334.97"/>
<polygon fill="black" stroke="black" points="408.5,-335.1 405,-325.1 401.5,-335.1 408.5,-335.1"/>
</g>
<!-- test3_bannette -->
<g id="node6" class="node">
<title>test3_bannette</title>
<polygon fill="none" stroke="black" points="524,-396 470,-396 470,-360 524,-360 524,-396"/>
<text text-anchor="middle" x="497" y="-374.3" font-family="Times,serif" font-size="14.00">Test 3</text>
</g>
<!-- test3_creerdocument_bannette -->
<g id="node15" class="node">
<title>test3_creerdocument_bannette</title>
<polygon fill="none" stroke="black" points="534,-324 460,-324 460,-288 534,-288 534,-324"/>
<text text-anchor="middle" x="497" y="-302.3" font-family="Times,serif" font-size="14.00">Document</text>
</g>
<!-- test3_bannette&#45;&gt;test3_creerdocument_bannette -->
<g id="edge6" class="edge">
<title>test3_bannette&#45;&gt;test3_creerdocument_bannette</title>
<path fill="none" stroke="black" d="M497,-359.7C497,-352.24 497,-343.32 497,-334.97"/>
<polygon fill="black" stroke="black" points="500.5,-335.1 497,-325.1 493.5,-335.1 500.5,-335.1"/>
</g>
<!-- test1_dossier -->
<g id="node7" class="node">
<title>test1_dossier</title>
<polygon fill="none" stroke="black" points="616,-396 562,-396 562,-360 616,-360 616,-396"/>
<text text-anchor="middle" x="589" y="-374.3" font-family="Times,serif" font-size="14.00">Test 1</text>
</g>
<!-- test1_creerdocument_dossier -->
<g id="node16" class="node">
<title>test1_creerdocument_dossier</title>
<polygon fill="none" stroke="black" points="626,-324 552,-324 552,-288 626,-288 626,-324"/>
<text text-anchor="middle" x="589" y="-302.3" font-family="Times,serif" font-size="14.00">Document</text>
</g>
<!-- test1_dossier&#45;&gt;test1_creerdocument_dossier -->
<g id="edge7" class="edge">
<title>test1_dossier&#45;&gt;test1_creerdocument_dossier</title>
<path fill="none" stroke="black" d="M589,-359.7C589,-352.24 589,-343.32 589,-334.97"/>
<polygon fill="black" stroke="black" points="592.5,-335.1 589,-325.1 585.5,-335.1 592.5,-335.1"/>
</g>
<!-- test2_dossier -->
<g id="node8" class="node">
<title>test2_dossier</title>
<polygon fill="none" stroke="black" points="752,-396 698,-396 698,-360 752,-360 752,-396"/>
<text text-anchor="middle" x="725" y="-374.3" font-family="Times,serif" font-size="14.00">Test 2</text>
</g>
<!-- test2_creerdocument_dossier -->
<g id="node17" class="node">
<title>test2_creerdocument_dossier</title>
<polygon fill="none" stroke="black" points="762,-324 688,-324 688,-288 762,-288 762,-324"/>
<text text-anchor="middle" x="725" y="-302.3" font-family="Times,serif" font-size="14.00">Document</text>
</g>
<!-- test2_dossier&#45;&gt;test2_creerdocument_dossier -->
<g id="edge8" class="edge">
<title>test2_dossier&#45;&gt;test2_creerdocument_dossier</title>
<path fill="none" stroke="black" d="M725,-359.7C725,-352.24 725,-343.32 725,-334.97"/>
<polygon fill="black" stroke="black" points="728.5,-335.1 725,-325.1 721.5,-335.1 728.5,-335.1"/>
</g>
<!-- test3_dossier -->
<g id="node9" class="node">
<title>test3_dossier</title>
<polygon fill="none" stroke="black" points="888,-396 834,-396 834,-360 888,-360 888,-396"/>
<text text-anchor="middle" x="861" y="-374.3" font-family="Times,serif" font-size="14.00">Test 3</text>
</g>
<!-- test3_creerdocument_dossier -->
<g id="node18" class="node">
<title>test3_creerdocument_dossier</title>
<polygon fill="none" stroke="black" points="898,-324 824,-324 824,-288 898,-288 898,-324"/>
<text text-anchor="middle" x="861" y="-302.3" font-family="Times,serif" font-size="14.00">Document</text>
</g>
<!-- test3_dossier&#45;&gt;test3_creerdocument_dossier -->
<g id="edge9" class="edge">
<title>test3_dossier&#45;&gt;test3_creerdocument_dossier</title>
<path fill="none" stroke="black" d="M861,-359.7C861,-352.24 861,-343.32 861,-334.97"/>
<polygon fill="black" stroke="black" points="864.5,-335.1 861,-325.1 857.5,-335.1 864.5,-335.1"/>
</g>
<!-- test1_creergabarit_armoire -->
<g id="node19" class="node">
<title>test1_creergabarit_armoire</title>
<polygon fill="none" stroke="black" points="65.5,-252 8.5,-252 8.5,-216 65.5,-216 65.5,-252"/>
<text text-anchor="middle" x="37" y="-230.3" font-family="Times,serif" font-size="14.00">Gabarit</text>
</g>
<!-- test1_creerdocument_armoire&#45;&gt;test1_creergabarit_armoire -->
<g id="edge10" class="edge">
<title>test1_creerdocument_armoire&#45;&gt;test1_creergabarit_armoire</title>
<path fill="none" stroke="black" d="M37,-287.7C37,-280.24 37,-271.32 37,-262.97"/>
<polygon fill="black" stroke="black" points="40.5,-263.1 37,-253.1 33.5,-263.1 40.5,-263.1"/>
</g>
<!-- test2_creergabarit_armoire -->
<g id="node20" class="node">
<title>test2_creergabarit_armoire</title>
<polygon fill="none" stroke="black" points="157.5,-252 100.5,-252 100.5,-216 157.5,-216 157.5,-252"/>
<text text-anchor="middle" x="129" y="-230.3" font-family="Times,serif" font-size="14.00">Gabarit</text>
</g>
<!-- test2_creerdocument_armoire&#45;&gt;test2_creergabarit_armoire -->
<g id="edge11" class="edge">
<title>test2_creerdocument_armoire&#45;&gt;test2_creergabarit_armoire</title>
<path fill="none" stroke="black" d="M129,-287.7C129,-280.24 129,-271.32 129,-262.97"/>
<polygon fill="black" stroke="black" points="132.5,-263.1 129,-253.1 125.5,-263.1 132.5,-263.1"/>
</g>
<!-- test3_creergabarit_armoire -->
<g id="node21" class="node">
<title>test3_creergabarit_armoire</title>
<polygon fill="none" stroke="black" points="249.5,-252 192.5,-252 192.5,-216 249.5,-216 249.5,-252"/>
<text text-anchor="middle" x="221" y="-230.3" font-family="Times,serif" font-size="14.00">Gabarit</text>
</g>
<!-- test3_creerdocument_armoire&#45;&gt;test3_creergabarit_armoire -->
<g id="edge12" class="edge">
<title>test3_creerdocument_armoire&#45;&gt;test3_creergabarit_armoire</title>
<path fill="none" stroke="black" d="M221,-287.7C221,-280.24 221,-271.32 221,-262.97"/>
<polygon fill="black" stroke="black" points="224.5,-263.1 221,-253.1 217.5,-263.1 224.5,-263.1"/>
</g>
<!-- test1_creerbannette -->
<g id="node22" class="node">
<title>test1_creerbannette</title>
<polygon fill="none" stroke="black" points="345.5,-252 280.5,-252 280.5,-216 345.5,-216 345.5,-252"/>
<text text-anchor="middle" x="313" y="-230.3" font-family="Times,serif" font-size="14.00">Bannette</text>
</g>
<!-- test1_creerdocument_bannette&#45;&gt;test1_creerbannette -->
<g id="edge13" class="edge">
<title>test1_creerdocument_bannette&#45;&gt;test1_creerbannette</title>
<path fill="none" stroke="black" d="M313,-287.7C313,-280.24 313,-271.32 313,-262.97"/>
<polygon fill="black" stroke="black" points="316.5,-263.1 313,-253.1 309.5,-263.1 316.5,-263.1"/>
</g>
<!-- test2_creerbannette -->
<g id="node23" class="node">
<title>test2_creerbannette</title>
<polygon fill="none" stroke="black" points="437.5,-252 372.5,-252 372.5,-216 437.5,-216 437.5,-252"/>
<text text-anchor="middle" x="405" y="-230.3" font-family="Times,serif" font-size="14.00">Bannette</text>
</g>
<!-- test2_creerdocument_bannette&#45;&gt;test2_creerbannette -->
<g id="edge14" class="edge">
<title>test2_creerdocument_bannette&#45;&gt;test2_creerbannette</title>
<path fill="none" stroke="black" d="M405,-287.7C405,-280.24 405,-271.32 405,-262.97"/>
<polygon fill="black" stroke="black" points="408.5,-263.1 405,-253.1 401.5,-263.1 408.5,-263.1"/>
</g>
<!-- test3_creerbannette -->
<g id="node24" class="node">
<title>test3_creerbannette</title>
<polygon fill="none" stroke="black" points="529.5,-252 464.5,-252 464.5,-216 529.5,-216 529.5,-252"/>
<text text-anchor="middle" x="497" y="-230.3" font-family="Times,serif" font-size="14.00">Bannette</text>
</g>
<!-- test3_creerdocument_bannette&#45;&gt;test3_creerbannette -->
<g id="edge15" class="edge">
<title>test3_creerdocument_bannette&#45;&gt;test3_creerbannette</title>
<path fill="none" stroke="black" d="M497,-287.7C497,-280.24 497,-271.32 497,-262.97"/>
<polygon fill="black" stroke="black" points="500.5,-263.1 497,-253.1 493.5,-263.1 500.5,-263.1"/>
</g>
<!-- test1_creerdossier -->
<g id="node25" class="node">
<title>test1_creerdossier</title>
<polygon fill="none" stroke="black" points="618,-252 560,-252 560,-216 618,-216 618,-252"/>
<text text-anchor="middle" x="589" y="-230.3" font-family="Times,serif" font-size="14.00">Dossier</text>
</g>
<!-- test1_creerdocument_dossier&#45;&gt;test1_creerdossier -->
<g id="edge16" class="edge">
<title>test1_creerdocument_dossier&#45;&gt;test1_creerdossier</title>
<path fill="none" stroke="black" d="M589,-287.7C589,-280.24 589,-271.32 589,-262.97"/>
<polygon fill="black" stroke="black" points="592.5,-263.1 589,-253.1 585.5,-263.1 592.5,-263.1"/>
</g>
<!-- test2_creerdossier -->
<g id="node26" class="node">
<title>test2_creerdossier</title>
<polygon fill="none" stroke="black" points="754,-252 696,-252 696,-216 754,-216 754,-252"/>
<text text-anchor="middle" x="725" y="-230.3" font-family="Times,serif" font-size="14.00">Dossier</text>
</g>
<!-- test2_creerdocument_dossier&#45;&gt;test2_creerdossier -->
<g id="edge17" class="edge">
<title>test2_creerdocument_dossier&#45;&gt;test2_creerdossier</title>
<path fill="none" stroke="black" d="M725,-287.7C725,-280.24 725,-271.32 725,-262.97"/>
<polygon fill="black" stroke="black" points="728.5,-263.1 725,-253.1 721.5,-263.1 728.5,-263.1"/>
</g>
<!-- test3_creerdossier -->
<g id="node27" class="node">
<title>test3_creerdossier</title>
<polygon fill="none" stroke="black" points="890,-252 832,-252 832,-216 890,-216 890,-252"/>
<text text-anchor="middle" x="861" y="-230.3" font-family="Times,serif" font-size="14.00">Dossier</text>
</g>
<!-- test3_creerdocument_dossier&#45;&gt;test3_creerdossier -->
<g id="edge18" class="edge">
<title>test3_creerdocument_dossier&#45;&gt;test3_creerdossier</title>
<path fill="none" stroke="black" d="M861,-287.7C861,-280.24 861,-271.32 861,-262.97"/>
<polygon fill="black" stroke="black" points="864.5,-263.1 861,-253.1 857.5,-263.1 864.5,-263.1"/>
</g>
<!-- test1_creerarmoire -->
<g id="node28" class="node">
<title>test1_creerarmoire</title>
<polygon fill="none" stroke="black" points="68.5,-180 5.5,-180 5.5,-144 68.5,-144 68.5,-180"/>
<text text-anchor="middle" x="37" y="-158.3" font-family="Times,serif" font-size="14.00">Armoire</text>
</g>
<!-- test1_creergabarit_armoire&#45;&gt;test1_creerarmoire -->
<g id="edge19" class="edge">
<title>test1_creergabarit_armoire&#45;&gt;test1_creerarmoire</title>
<path fill="none" stroke="black" d="M37,-215.7C37,-208.24 37,-199.32 37,-190.97"/>
<polygon fill="black" stroke="black" points="40.5,-191.1 37,-181.1 33.5,-191.1 40.5,-191.1"/>
</g>
<!-- test2_creerarmoire -->
<g id="node29" class="node">
<title>test2_creerarmoire</title>
<polygon fill="none" stroke="black" points="160.5,-180 97.5,-180 97.5,-144 160.5,-144 160.5,-180"/>
<text text-anchor="middle" x="129" y="-158.3" font-family="Times,serif" font-size="14.00">Armoire</text>
</g>
<!-- test2_creergabarit_armoire&#45;&gt;test2_creerarmoire -->
<g id="edge20" class="edge">
<title>test2_creergabarit_armoire&#45;&gt;test2_creerarmoire</title>
<path fill="none" stroke="black" d="M129,-215.7C129,-208.24 129,-199.32 129,-190.97"/>
<polygon fill="black" stroke="black" points="132.5,-191.1 129,-181.1 125.5,-191.1 132.5,-191.1"/>
</g>
<!-- test3_creerarmoire -->
<g id="node30" class="node">
<title>test3_creerarmoire</title>
<polygon fill="none" stroke="black" points="252.5,-180 189.5,-180 189.5,-144 252.5,-144 252.5,-180"/>
<text text-anchor="middle" x="221" y="-158.3" font-family="Times,serif" font-size="14.00">Armoire</text>
</g>
<!-- test3_creergabarit_armoire&#45;&gt;test3_creerarmoire -->
<g id="edge21" class="edge">
<title>test3_creergabarit_armoire&#45;&gt;test3_creerarmoire</title>
<path fill="none" stroke="black" d="M221,-215.7C221,-208.24 221,-199.32 221,-190.97"/>
<polygon fill="black" stroke="black" points="224.5,-191.1 221,-181.1 217.5,-191.1 224.5,-191.1"/>
</g>
<!-- test1_creergabaritdocument_dossier -->
<g id="node31" class="node">
<title>test1_creergabaritdocument_dossier</title>
<polygon fill="none" stroke="black" points="648,-180 530,-180 530,-144 648,-144 648,-180"/>
<text text-anchor="middle" x="589" y="-158.3" font-family="Times,serif" font-size="14.00">Gabarit Document</text>
</g>
<!-- test1_creerdossier&#45;&gt;test1_creergabaritdocument_dossier -->
<g id="edge22" class="edge">
<title>test1_creerdossier&#45;&gt;test1_creergabaritdocument_dossier</title>
<path fill="none" stroke="black" d="M589,-215.7C589,-208.24 589,-199.32 589,-190.97"/>
<polygon fill="black" stroke="black" points="592.5,-191.1 589,-181.1 585.5,-191.1 592.5,-191.1"/>
</g>
<!-- test2_creergabaritdocument_dossier -->
<g id="node32" class="node">
<title>test2_creergabaritdocument_dossier</title>
<polygon fill="none" stroke="black" points="784,-180 666,-180 666,-144 784,-144 784,-180"/>
<text text-anchor="middle" x="725" y="-158.3" font-family="Times,serif" font-size="14.00">Gabarit Document</text>
</g>
<!-- test2_creerdossier&#45;&gt;test2_creergabaritdocument_dossier -->
<g id="edge23" class="edge">
<title>test2_creerdossier&#45;&gt;test2_creergabaritdocument_dossier</title>
<path fill="none" stroke="black" d="M725,-215.7C725,-208.24 725,-199.32 725,-190.97"/>
<polygon fill="black" stroke="black" points="728.5,-191.1 725,-181.1 721.5,-191.1 728.5,-191.1"/>
</g>
<!-- test3_creergabaritdocument_dossier -->
<g id="node33" class="node">
<title>test3_creergabaritdocument_dossier</title>
<polygon fill="none" stroke="black" points="920,-180 802,-180 802,-144 920,-144 920,-180"/>
<text text-anchor="middle" x="861" y="-158.3" font-family="Times,serif" font-size="14.00">Gabarit Document</text>
</g>
<!-- test3_creerdossier&#45;&gt;test3_creergabaritdocument_dossier -->
<g id="edge24" class="edge">
<title>test3_creerdossier&#45;&gt;test3_creergabaritdocument_dossier</title>
<path fill="none" stroke="black" d="M861,-215.7C861,-208.24 861,-199.32 861,-190.97"/>
<polygon fill="black" stroke="black" points="864.5,-191.1 861,-181.1 857.5,-191.1 864.5,-191.1"/>
</g>
<!-- test1_creergabaritdossier -->
<g id="node34" class="node">
<title>test1_creergabaritdossier</title>
<polygon fill="none" stroke="black" points="640,-108 538,-108 538,-72 640,-72 640,-108"/>
<text text-anchor="middle" x="589" y="-86.3" font-family="Times,serif" font-size="14.00">Gabarit Dossier</text>
</g>
<!-- test1_creergabaritdocument_dossier&#45;&gt;test1_creergabaritdossier -->
<g id="edge25" class="edge">
<title>test1_creergabaritdocument_dossier&#45;&gt;test1_creergabaritdossier</title>
<path fill="none" stroke="black" d="M589,-143.7C589,-136.24 589,-127.32 589,-118.97"/>
<polygon fill="black" stroke="black" points="592.5,-119.1 589,-109.1 585.5,-119.1 592.5,-119.1"/>
</g>
<!-- test2_creergabaritdossier -->
<g id="node35" class="node">
<title>test2_creergabaritdossier</title>
<polygon fill="none" stroke="black" points="776,-108 674,-108 674,-72 776,-72 776,-108"/>
<text text-anchor="middle" x="725" y="-86.3" font-family="Times,serif" font-size="14.00">Gabarit Dossier</text>
</g>
<!-- test2_creergabaritdocument_dossier&#45;&gt;test2_creergabaritdossier -->
<g id="edge26" class="edge">
<title>test2_creergabaritdocument_dossier&#45;&gt;test2_creergabaritdossier</title>
<path fill="none" stroke="black" d="M725,-143.7C725,-136.24 725,-127.32 725,-118.97"/>
<polygon fill="black" stroke="black" points="728.5,-119.1 725,-109.1 721.5,-119.1 728.5,-119.1"/>
</g>
<!-- test3_creergabaritdossier -->
<g id="node36" class="node">
<title>test3_creergabaritdossier</title>
<polygon fill="none" stroke="black" points="912,-108 810,-108 810,-72 912,-72 912,-108"/>
<text text-anchor="middle" x="861" y="-86.3" font-family="Times,serif" font-size="14.00">Gabarit Dossier</text>
</g>
<!-- test3_creergabaritdocument_dossier&#45;&gt;test3_creergabaritdossier -->
<g id="edge27" class="edge">
<title>test3_creergabaritdocument_dossier&#45;&gt;test3_creergabaritdossier</title>
<path fill="none" stroke="black" d="M861,-143.7C861,-136.24 861,-127.32 861,-118.97"/>
<polygon fill="black" stroke="black" points="864.5,-119.1 861,-109.1 857.5,-119.1 864.5,-119.1"/>
</g>
<!-- test1_creerarmoire_dossier -->
<g id="node37" class="node">
<title>test1_creerarmoire_dossier</title>
<polygon fill="none" stroke="black" points="620.5,-36 557.5,-36 557.5,0 620.5,0 620.5,-36"/>
<text text-anchor="middle" x="589" y="-14.3" font-family="Times,serif" font-size="14.00">Armoire</text>
</g>
<!-- test1_creergabaritdossier&#45;&gt;test1_creerarmoire_dossier -->
<g id="edge28" class="edge">
<title>test1_creergabaritdossier&#45;&gt;test1_creerarmoire_dossier</title>
<path fill="none" stroke="black" d="M589,-71.7C589,-64.24 589,-55.32 589,-46.97"/>
<polygon fill="black" stroke="black" points="592.5,-47.1 589,-37.1 585.5,-47.1 592.5,-47.1"/>
</g>
<!-- test2_creerarmoire_dossier -->
<g id="node38" class="node">
<title>test2_creerarmoire_dossier</title>
<polygon fill="none" stroke="black" points="756.5,-36 693.5,-36 693.5,0 756.5,0 756.5,-36"/>
<text text-anchor="middle" x="725" y="-14.3" font-family="Times,serif" font-size="14.00">Armoire</text>
</g>
<!-- test2_creergabaritdossier&#45;&gt;test2_creerarmoire_dossier -->
<g id="edge29" class="edge">
<title>test2_creergabaritdossier&#45;&gt;test2_creerarmoire_dossier</title>
<path fill="none" stroke="black" d="M725,-71.7C725,-64.24 725,-55.32 725,-46.97"/>
<polygon fill="black" stroke="black" points="728.5,-47.1 725,-37.1 721.5,-47.1 728.5,-47.1"/>
</g>
<!-- test3_creerarmoire_dossier -->
<g id="node39" class="node">
<title>test3_creerarmoire_dossier</title>
<polygon fill="none" stroke="black" points="892.5,-36 829.5,-36 829.5,0 892.5,0 892.5,-36"/>
<text text-anchor="middle" x="861" y="-14.3" font-family="Times,serif" font-size="14.00">Armoire</text>
</g>
<!-- test3_creergabaritdossier&#45;&gt;test3_creerarmoire_dossier -->
<g id="edge30" class="edge">
<title>test3_creergabaritdossier&#45;&gt;test3_creerarmoire_dossier</title>
<path fill="none" stroke="black" d="M861,-71.7C861,-64.24 861,-55.32 861,-46.97"/>
<polygon fill="black" stroke="black" points="864.5,-47.1 861,-37.1 857.5,-47.1 864.5,-47.1"/>
</g>
</g>
</svg>
